# xmcd
#
# Track frame offsets:
#	150
#	20530
#	38788
#	55263
#	75293
#	94695
#	115673
#	133130
#	152083
#	170318
#	184448
#	204225
#	226270
#	245223
#	262765
#	280328
#	298713
#
# Disc length: 4258 seconds
#
# Revision: 0
# Processed by: cddbd v1.5.2PL0 Copyright (c) Steve Scherf et al.
# Submitted via: dBpowerAMP V4.0
#
DISCID=e510a011
DTITLE=Various Artist - Top Hits USA RA27
DYEAR=1900
DGENRE=
TTITLE0=Amy Grant and Vince Gill - House of Love
TTITLE1=Richard Marx - Nothing Left Behind us (Single)
TTITLE2=Vanessa Williams - The Sweetest Days
TTITLE3=Sting - When we Dance (Edit)
TTITLE4=Madonna - Secret
TTITLE5=Joshua Kadison - Picture Postcards From L.A.
TTITLE6=Kathy Troccoli - If I'm Not in Love
TTITLE7=Luther Vandross - Always And Forever (Radio Edit)
TTITLE8=Gloria Estefan - Turn The Beat Around (7'' Remix)
TTITLE9=Ace Of Base - Living in Danger (Single Remix)
TTITLE10=Michael Bolton - Once in a Lifetime (Edit)
TTITLE11=Celine Dion - Only One Road
TTITLE12=Jon Secada - Mental Picture
TTITLE13=Bonnie Raitt - Storm Warning (Edit)
TTITLE14=Steve Perry - Missing You
TTITLE15=Melissa Etheridge - I'm The Only One
TTITLE16=Bon Jovi - Always (Radio Edit)
EXTD=
EXTT0=
EXTT1=
EXTT2=
EXTT3=
EXTT4=
EXTT5=
EXTT6=
EXTT7=
EXTT8=
EXTT9=
EXTT10=
EXTT11=
EXTT12=
EXTT13=
EXTT14=
EXTT15=
EXTT16=
PLAYORDER=
